<?xml version="1.0" standalone="yes"?>
<svg xmlns="http://www.w3.org/2000/svg" width="200" height="200">
<path style="fill:#000000; stroke:none;" d="M0 0L0 200L200 200L200 0L0 0z"/>
<path style="fill:#083b66; stroke:none;" d="M96 157L98 157C102.74 150.381 107.483 143.774 112 137C130.824 108.766 160.033 67.504 139.073 33C135.952 27.862 131.754 23.3447 127 19.6806C95.2785 -4.77054 47.1816 18.9886 47.179 59C47.1766 97.1663 77.1928 126.9 96 157z"/>
<path style="fill:#2b7488; stroke:none;" d="M92 27C93.2484 27.6848 93.5484 27.7488 95 28C93.7517 27.3152 93.4515 27.2512 92 27z"/>
<path style="fill:#3d96a1; stroke:none;" d="M95 27C96.506 27.683 97.3148 27.8259 99 28C97.4939 27.317 96.6852 27.1741 95 27z"/>
<path style="fill:#2b7488; stroke:none;" d="M99.6667 27.3333C99.2222 27.7778 100.278 27.7222 100.333 27.6667C100.778 27.2222 99.7222 27.2778 99.6667 27.3333z"/>
<path style="fill:#45a7af; stroke:none;" d="M88.6667 28.3333C88.2222 28.7778 89.2778 28.7222 89.3333 28.6667C89.7778 28.2222 88.7222 28.2778 88.6667 28.3333z"/>
<path style="fill:#55c6c9; stroke:none;" d="M90 28.4398C67.6797 32.0336 57.9134 59.6106 69.5594 77.9992C76.7569 89.3637 90.0701 93.8335 103 91.6744C124.725 88.0465 135.759 61.6238 124.521 43C117.222 30.9038 103.482 26.2691 90 28.4398z"/>
<path style="fill:#307e8f; stroke:none;" d="M107.667 29.3333C107.222 29.7778 108.278 29.7222 108.333 29.6667C108.778 29.2222 107.722 29.2778 107.667 29.3333z"/>
<path style="fill:#358695; stroke:none;" d="M110 30L111 31L110 30z"/>
<path style="fill:#2e798b; stroke:none;" d="M112 31L113 32L112 31z"/>
<path style="fill:#398e9b; stroke:none;" d="M115 33L116 34L115 33z"/>
<path style="fill:#2b7488; stroke:none;" d="M76 34L77 35L76 34z"/>
<path style="fill:#378a99; stroke:none;" d="M75 35L76 36L75 35z"/>
<path style="fill:#398e9b; stroke:none;" d="M72 38L73 39L72 38z"/>
<path style="fill:#2b7488; stroke:none;" d="M71 39L72 40L71 39z"/>
<path style="fill:#083b66; stroke:none;" d="M85 41L85 43L88 43L88 41L85 41z"/>
<path style="fill:#307e8f; stroke:none;" d="M123 41L124 42L123 41z"/>
<path style="fill:#3d96a1; stroke:none;" d="M83 44C84.8465 44.4675 86.0685 44.3013 88 44C86.0567 43.3782 85.051 43.5642 83 44z"/>
<path style="fill:#4ab0b7; stroke:none;" d="M100 43C104.217 44.7693 109.459 44 114 44C109.783 42.2307 104.541 43 100 43z"/>
<path style="fill:#2b7488; stroke:none;" d="M85 44C87.6127 45.0977 90.1645 44.9928 93 45C90.3873 43.9023 87.8355 44.0072 85 44z"/>
<path style="fill:#083b66; stroke:none;" d="M78 50L85 50L85 55C76.4481 55.6749 69.2512 54.6088 69 65C72.1782 64.4655 74.9053 60.8382 78.0039 61.1705C80.6616 61.4556 82.5023 64.0295 85.0895 64.686C89.4221 65.7854 95.5222 65.3434 99.9606 64.9414C103.392 64.6306 105.76 61.1975 109 61.1975C112.722 61.1975 115.775 64.86 120 65C119.151 58.2844 119 51.7714 119 45C109.889 43.3085 100.168 43.6175 91 44.7145C85.4014 45.3845 81.7284 45.2965 78 50z"/>
<path style="fill:#2b7488; stroke:none;" d="M116 44C117.248 44.6848 117.548 44.7488 119 45C117.752 44.3152 117.451 44.2512 116 44z"/>
<path style="fill:#307e8f; stroke:none;" d="M82 45L83 46L82 45z"/>
<path style="fill:#4ab0b7; stroke:none;" d="M119 45C119 49.7669 117.214 58.6915 121 62C119.687 56.4837 121.161 50.1498 119 45M100 48L100 52C100.71 50.2405 100.71 49.7595 100 48z"/>
<path style="fill:#55c6c9; stroke:none;" d="M101 48L101 52L96 52L96 54L100 54L100 58C102.451 56.4347 104.435 54.4505 106 52L102 52C101.826 50.3148 101.683 49.506 101 48z"/>
<path style="fill:#3d96a1; stroke:none;" d="M102 48L102 52C102.71 50.2405 102.71 49.7595 102 48z"/>
<path style="fill:#164d70; stroke:none;" d="M77 50L76 52C77.2627 51.0287 77.3919 51.3063 77 50z"/>
<path style="fill:#4ab0b7; stroke:none;" d="M78 50C79.769 50.7789 81.0359 50.9124 83 51C81.231 50.2211 79.964 50.0876 78 50z"/>
<path style="fill:#55c6c9; stroke:none;" d="M83 50C79.2265 51.2379 76.6026 51.8724 74 55L84 55C83.9124 53.0359 83.7789 51.769 83 50z"/>
<path style="fill:#1f5d78; stroke:none;" d="M84 50L84 55C84.8299 52.9695 84.8299 52.0305 84 50M73 56C74.2741 54.6589 75.0407 53.5969 76 52C73.7293 53.2246 73.4091 53.4911 73 56z"/>
<path style="fill:#3d96a1; stroke:none;" d="M106 52C104.777 53.1951 104.58 53.3164 103 54C105.139 54.9524 106.976 54.5767 106 52M128 53L128 56C128.696 54.4463 128.696 54.5537 128 53z"/>
<path style="fill:#398e9b; stroke:none;" d="M64 54L64 58C64.7102 56.2405 64.7102 55.7595 64 54z"/>
<path style="fill:#3d96a1; stroke:none;" d="M96 54C97.506 54.683 98.3148 54.8259 100 55C98.494 54.317 97.6852 54.1741 96 54z"/>
<path style="fill:#358695; stroke:none;" d="M71 55L72 56L71 55z"/>
<path style="fill:#2b7488; stroke:none;" d="M74 55C76.3316 55.9845 78.4566 55.9813 81 56C78.6684 55.0155 76.5434 55.0187 74 55z"/>
<path style="fill:#3d96a1; stroke:none;" d="M102 55C101.316 56.58 101.195 56.7772 100 58C102.577 58.9757 102.952 57.1389 102 55z"/>
<path style="fill:#358695; stroke:none;" d="M70 56L71 57L70 56z"/>
<path style="fill:#266981; stroke:none;" d="M69.3333 57.6667C69.2778 57.7222 69.2222 58.7778 69.6667 58.3333C69.7222 58.2778 69.7777 57.2223 69.3333 57.6667z"/>
<path style="fill:#44a3ac; stroke:none;" d="M64 58L64 62C64.7102 60.2405 64.7102 59.7595 64 58z"/>
<path style="fill:#3d96a1; stroke:none;" d="M76 60C77.2484 60.6848 77.5484 60.7488 79 61C77.7517 60.3152 77.4515 60.2512 76 60M107 60C108.506 60.683 109.315 60.8259 111 61C109.494 60.317 108.685 60.1741 107 60z"/>
<path style="fill:#338292; stroke:none;" d="M74 61L75 62L74 61M64 62L64 65C64.6961 63.4463 64.6961 63.5537 64 62M68 62L68 65C68.6961 63.4463 68.6961 63.5537 68 62z"/>
<path style="fill:#45a7af; stroke:none;" d="M73 64C74.58 63.3164 74.7772 63.1952 76 62C74.42 62.6836 74.2228 62.8048 73 64z"/>
<path style="fill:#083b66; stroke:none;" d="M75 68C84.5521 67.2552 75.7449 58.4479 75 68z"/>
<path style="fill:#398e9b; stroke:none;" d="M81 62L82 63L81 62z"/>
<path style="fill:#083b66; stroke:none;" d="M107.579 63.0818C105.166 64.8928 107.936 68.747 110.372 66.9182C112.694 65.175 109.97 61.2864 107.579 63.0818z"/>
<path style="fill:#1f5d78; stroke:none;" d="M120 62L120 65C120.696 63.4463 120.696 63.5537 120 62z"/>
<path style="fill:#2b7488; stroke:none;" d="M111 63L112 64L111 63z"/>
<path style="fill:#409da7; stroke:none;" d="M113.333 63.6667C113.278 63.7222 113.222 64.7778 113.667 64.3333C113.722 64.2777 113.778 63.2223 113.333 63.6667z"/>
<path style="fill:#266981; stroke:none;" d="M74 64L74 67C74.6961 65.4463 74.6961 65.5537 74 64z"/>
<path style="fill:#307e8f; stroke:none;" d="M82 64L83 65L82 64z"/>
<path style="fill:#398e9b; stroke:none;" d="M105.333 64.6667C105.278 64.7222 105.222 65.7778 105.667 65.3333C105.722 65.2777 105.778 64.2223 105.333 64.6667z"/>
<path style="fill:#3f99a4; stroke:none;" d="M128 64L128 67C128.696 65.4463 128.696 65.5537 128 64z"/>
<path style="fill:#2e798b; stroke:none;" d="M106 67L107 68L106 67z"/>
<path style="fill:#1f5d78; stroke:none;" d="M65.3333 68.6667C65.2778 68.7222 65.2222 69.7778 65.6667 69.3333C65.7222 69.2778 65.7778 68.2222 65.3333 68.6667z"/>
<path style="fill:#2b7488; stroke:none;" d="M76 68C77.2484 68.6848 77.5484 68.7488 79 69C77.7517 68.3152 77.4515 68.2512 76 68z"/>
<path style="fill:#307e8f; stroke:none;" d="M107 68C108.248 68.6848 108.548 68.7488 110 69C108.752 68.3152 108.452 68.2512 107 68z"/>
<path style="fill:#2b7488; stroke:none;" d="M127.333 69.6667C127.278 69.7222 127.222 70.7778 127.667 70.3333C127.722 70.2777 127.778 69.2223 127.333 69.6667z"/>
<path style="fill:#286e84; stroke:none;" d="M66.3333 71.6667C66.2778 71.7222 66.2222 72.7778 66.6667 72.3333C66.7222 72.2778 66.7777 71.2223 66.3333 71.6667z"/>
<path style="fill:#398e9b; stroke:none;" d="M124 76L125 77L124 76z"/>
<path style="fill:#307e8f; stroke:none;" d="M123 78L124 79L123 78z"/>
<path style="fill:#338292; stroke:none;" d="M71 80L72 81L71 80M76 85L77 86L76 85z"/>
<path style="fill:#307e8f; stroke:none;" d="M112 88L113 89L112 88z"/>
<path style="fill:#2b7488; stroke:none;" d="M82 89L83 90L82 89z"/>
<path style="fill:#398e9b; stroke:none;" d="M110 89L111 90L110 89z"/>
<path style="fill:#409da7; stroke:none;" d="M84.6667 90.3333C84.2222 90.7778 85.2778 90.7222 85.3333 90.6667C85.7778 90.2222 84.7222 90.2778 84.6667 90.3333z"/>
<path style="fill:#338292; stroke:none;" d="M107.667 90.3333C107.222 90.7778 108.278 90.7222 108.333 90.6667C108.778 90.2222 107.722 90.2778 107.667 90.3333z"/>
<path style="fill:#2b7488; stroke:none;" d="M104.667 91.3333C104.222 91.7778 105.278 91.7222 105.333 91.6667C105.778 91.2222 104.722 91.2778 104.667 91.3333M91 92C92.2484 92.6848 92.5484 92.7488 94 93C92.7516 92.3152 92.4516 92.2512 91 92z"/>
<path style="fill:#3d96a1; stroke:none;" d="M94 92C95.769 92.7789 97.0359 92.9124 99 93C97.231 92.2211 95.9641 92.0876 94 92z"/>
<path style="fill:#2b7488; stroke:none;" d="M99 92C100.248 92.6848 100.548 92.7488 102 93C100.752 92.3152 100.452 92.2512 99 92z"/>
<path style="fill:#55c6c9; stroke:none;" d="M157 157C155.069 163.854 152.581 170.887 152 178L149 178C149.597 173.942 150.812 170.123 151 166C148.197 166.025 144.908 165.743 142.649 167.742C139.554 170.481 136.01 180.039 140.434 182.921C143.827 185.131 148.135 182.856 151 181C151.251 182.452 151.315 182.752 152 184C157.478 178.226 159.362 164.816 160 157L157 157M165 184C169.986 182.445 172.032 177.566 174 173C174.248 176.705 173.17 180.267 173 184C178.739 181.989 179.751 171.456 180 166C176.435 166.269 174.744 166.832 173 170C172.707 165.576 174.408 161.393 175 157C170.652 158.408 170.173 161.849 169.127 166C167.621 171.97 165.503 177.842 165 184M27 158C23.28 165.411 20.7205 175.737 20 184C25.1627 182.328 25.6012 176.883 26 172C26.6438 174.106 26.9059 175.795 27 178C30.9094 177.34 32.2871 175.485 34 172C33.909 175.766 32.7634 179.309 32 183L33 184L35 184C38.7681 176.494 40.3052 167.211 42 159L41 158C35.7833 160.667 32.7299 166.535 31 172C29.6357 167.384 30.3643 162.616 29 158L27 158M71 184C75.5913 181.345 76.3303 175.969 77 171C77.7224 173.418 77.9481 175.472 78 178C81.5421 176.952 82.7846 175.468 84 172C84.3606 176.038 83.1771 179.937 83 184C89.9649 181.576 91.7104 164.643 92 158C86.4757 159.7 83.6598 165.757 82 171C80.761 166.847 80.3418 162.331 80 158C72.6527 160.38 71.1426 177.13 71 184M110 184C116.565 180.178 113.545 172.308 123 172C121.65 175.579 120.773 179.253 120 183L121 184L123 184C126.462 176.181 128.275 167.358 130 159L129 158L127 158C125.459 161.581 124.521 165.137 124 169L117 169L119 158C111.653 160.38 110.143 177.13 110 184M163 160C162.197 163.05 161.237 164.776 159 167C159.768 168.314 159.686 168.232 161 169C159.161 173.874 158.108 178.786 158 184C163.871 180.582 161.459 172.491 167 169C166.594 166.908 166.783 166.98 165 166L167 160L163 160M45 182C47.9454 183.659 49.208 182.81 52 181L50 190L54 190L55 184C60.9178 183.55 63.6929 179.777 64.6705 174C65.0386 171.825 65.3536 168.585 63.3966 167.028C61.5166 165.532 58.2316 166.008 56 166C55.0155 170.77 54.531 175.526 50 178C51.1291 174.021 52.3977 170.094 53 166C47.5929 166.019 43.7816 166.485 41.483 172.005C40.1208 175.276 38.9168 185.434 45 182M97 181L96 187C93.5703 185.818 91.6873 185.27 89 185C90.5015 189.381 95.8699 191.427 98.8611 186.851C102.419 181.409 103.692 172.319 105 166C99.0704 167.003 97.1127 172.927 95 178C95.0986 173.921 96.4542 170.05 97 166C90.1297 168.226 86.7427 188.13 97 181M134 178C135.126 176.733 136.486 175.476 137.302 173.955C138.893 170.987 139.251 165.024 134.024 166.662C129.499 168.08 124.571 178.532 128.607 182.377C131.881 185.496 135.868 181.41 134 178z"/>
<path style="fill:#000000; stroke:none;" d="M43 180C46.4561 176.982 47.6007 173.292 49 169C44.6795 171.324 43.6889 175.339 43 180M134 169L132 175C134.074 172.983 134.912 171.814 134 169M145 169C143.297 172.663 142.208 175.952 142 180C145.129 176.877 146.35 173.334 147 169L145 169M61 170C58.5394 173.497 57.1863 176.91 56 181C59.9523 178.874 62.3188 174.46 61 170M175 171L176 172L175 171M131 180C132.58 179.316 132.777 179.195 134 178C132.42 178.684 132.223 178.805 131 180M97 179L98 180L97 179M52 180L53 181L52 180z"/>
</svg>
